HIERARCHY
ROOT hip
{
	OFFSET 0.000000 0.000000 0.000000
	CHANNELS 6 Xposition Yposition Zposition Zrotation Yrotation Xrotation 
	JOINT lhipjoint
	{
		OFFSET 0.000000 0.000000 0.000000
		CHANNELS 3 Zrotation Yrotation Xrotation
		JOINT lfemur
		{
			OFFSET 1.363060 -1.794630 0.839290
			CHANNELS 3 Zrotation Yrotation Xrotation
			JOINT ltibia
			{
				OFFSET 2.448110 -6.726130 0.000000
				CHANNELS 3 Zrotation Yrotation Xrotation
				JOINT lfoot
				{
					OFFSET 2.562200 -7.039590 0.000000
					CHANNELS 3 Zrotation Yrotation Xrotation
					JOINT ltoes
					{
						OFFSET 0.157640 -0.433110 2.322550
						CHANNELS 3 Zrotation Yrotation Xrotation
						End Site
						{
							OFFSET 0.000000 0.000000 0.000000
						}
					}
				}
			}
		}
	}
	JOINT rhipjoint
	{
		OFFSET 0.000000 0.000000 0.000000
		CHANNELS 3 Zrotation Yrotation Xrotation
		JOINT rfemur
		{
			OFFSET -1.305520 -1.794630 0.839290
			CHANNELS 3 Zrotation Yrotation Xrotation
			JOINT rtibia
			{
				OFFSET -2.542530 -6.985550 0.000000
				CHANNELS 3 Zrotation Yrotation Xrotation
				JOINT rfoot
				{
					OFFSET -2.568260 -7.056230 0.000000
					CHANNELS 3 Zrotation Yrotation Xrotation
					JOINT rtoes
					{
						OFFSET -0.164730 -0.452590 2.363150
						CHANNELS 3 Zrotation Yrotation Xrotation
						End Site
						{
							OFFSET 0.000000 0.000000 0.000000
						}
					}
				}
			}
		}
	}
	JOINT lowerback
	{
		OFFSET 0.000000 0.000000 0.000000
		CHANNELS 3 Zrotation Yrotation Xrotation
		JOINT upperback
		{
			OFFSET 0.028270 2.035590 -0.193380
			CHANNELS 3 Zrotation Yrotation Xrotation
			JOINT thorax
			{
				OFFSET 0.056720 2.048850 -0.042750
				CHANNELS 3 Zrotation Yrotation Xrotation
				JOINT lowerneck
				{
					OFFSET 0.000000 0.000000 0.000000
					CHANNELS 3 Zrotation Yrotation Xrotation
					JOINT upperneck
					{
						OFFSET -0.054170 1.746240 0.172020
						CHANNELS 3 Zrotation Yrotation Xrotation
						JOINT head
						{
							OFFSET 0.104070 1.761360 -0.123970
							CHANNELS 3 Zrotation Yrotation Xrotation
							End Site
							{
								OFFSET 0.000000 0.000000 0.000000
							}
						}
					}
				}
				JOINT lclavicle
				{
					OFFSET 0.000000 0.000000 0.000000
					CHANNELS 3 Zrotation Yrotation Xrotation
					JOINT lhumerus
					{
						OFFSET 3.362410 1.200890 -0.311210
						CHANNELS 3 Zrotation Yrotation Xrotation
						JOINT lradius
						{
							OFFSET 4.983000 -0.000000 -0.000000
							CHANNELS 3 Zrotation Yrotation Xrotation
							JOINT lwrist
							{
								OFFSET 3.483560 -0.000000 -0.000000
								CHANNELS 3 Zrotation Yrotation Xrotation
								JOINT lhand
								{
									OFFSET 0.000000 0.000000 0.000000
									CHANNELS 3 Zrotation Yrotation Xrotation
									JOINT lfingers
									{
										OFFSET 0.715260 -0.000000 -0.000000
										CHANNELS 3 Zrotation Yrotation Xrotation
										End Site
										{
											OFFSET 0.000000 0.000000 0.000000
										}
									}
								}
								JOINT lthumb
								{
									OFFSET 0.000000 0.000000 0.000000
									CHANNELS 3 Zrotation Yrotation Xrotation
									End Site
									{
										OFFSET 0.000000 0.000000 0.000000
									}
								}
							}
						}
					}
				}
				JOINT rclavicle
				{
					OFFSET 0.000000 0.000000 0.000000
					CHANNELS 3 Zrotation Yrotation Xrotation
					JOINT rhumerus
					{
						OFFSET -3.136600 1.374050 -0.404650
						CHANNELS 3 Zrotation Yrotation Xrotation
						JOINT rradius
						{
							OFFSET -5.241900 -0.000000 -0.000000
							CHANNELS 3 Zrotation Yrotation Xrotation
							JOINT rwrist
							{
								OFFSET -3.444170 -0.000000 -0.000000
								CHANNELS 3 Zrotation Yrotation Xrotation
								JOINT rhand
								{
									OFFSET 0.000000 0.000000 0.000000
									CHANNELS 3 Zrotation Yrotation Xrotation
									JOINT rfingers
									{
										OFFSET -0.622530 -0.000000 -0.000000
										CHANNELS 3 Zrotation Yrotation Xrotation
										End Site
										{
											OFFSET 0.000000 0.000000 0.000000
										}
									}
								}
								JOINT rthumb
								{
									OFFSET 0.000000 0.000000 0.000000
									CHANNELS 3 Zrotation Yrotation Xrotation
									End Site
									{
										OFFSET 0.000000 0.000000 0.000000
									}
								}
							}
						}
					}
				}
			}
		}
	}
}
MOTION
Frames: 10
Frame Time: 0.008333
-0.297745 16.750324 -4.214376 -176.991867 16.862583 173.299140 4.118644 3.541841 -0.363324 -19.544557 5.452441 -1.962741 2.271275 8.281921 28.205374 2.417230 -8.998405 5.275749 0.002700 0.333400 0.916100 -6.987597 -3.669473 -2.312496 30.847785 -2.928603 -3.434325 -6.938395 -12.759793 43.234301 0.072554 -8.383891 -19.219600 -0.029600 -1.109800 3.051000 1.006912 -1.987838 16.698097 0.927767 -1.341923 -2.005178 0.224573 0.363509 6.075277 -4.095291 -0.200455 -16.746275 9.061896 -0.069027 4.742848 1.405200 0.526200 -1.734500 2.250982 -8.206654 4.094469 -76.721375 -4.692460 22.658597 29.367291 -44.906157 -9.224664 1.186132 0.050695 142.429468 21.757272 15.926049 6.216500 -7.125000 0.000000 0.000000 -4.585500 46.196800 -0.135700 3.348167 8.669683 4.781987 74.930161 -10.534622 24.327228 -90.433330 56.089422 -48.577708 -0.708076 0.298343 176.469008 -14.205207 -10.869210 2.770700 7.125000 0.000000 0.000000 10.707600 -40.586500 1.180600 
-0.303742 16.748487 -4.199769 -177.069755 16.936102 173.292567 4.114519 3.537635 -0.345220 -19.649901 5.414474 -2.024858 2.275180 8.280869 28.211114 2.395455 -8.876953 5.252386 0.003400 0.374200 1.028300 -6.961142 -3.656973 -2.358885 30.551619 -3.477742 -3.228532 -6.939602 -12.763604 43.244683 0.104462 -8.811490 -19.594732 -0.045900 -1.382600 3.802100 0.987454 -1.986900 16.452043 0.924828 -1.373219 -2.019266 0.171382 0.336669 6.123922 -4.053531 -0.217729 -16.817649 9.054736 -0.099678 4.834405 1.393300 0.511100 -1.675100 2.209266 -8.204057 4.100308 -76.795981 -4.471837 23.055937 30.439097 -45.671561 -9.706315 1.230413 0.127381 141.195140 21.586619 15.887340 6.172600 -7.125000 0.000000 0.000000 -4.675700 46.148800 -0.132900 3.356833 8.679136 4.755969 75.008604 -10.577583 24.361913 -91.075714 55.962442 -49.204347 -0.691850 0.282787 176.651205 -14.151345 -10.850907 2.757900 7.125000 0.000000 0.000000 10.767100 -40.582600 1.188400 
-0.308482 16.746745 -4.185163 -177.127134 17.022903 173.280994 4.108988 3.533649 -0.328042 -19.731837 5.371028 -2.071407 2.276855 8.276595 28.205390 2.371172 -8.744063 5.243199 0.004100 0.411300 1.130200 -6.934532 -3.643413 -2.408594 30.266058 -4.075795 -3.028048 -6.939010 -12.764677 43.245583 0.167776 -9.432361 -19.977765 -0.056000 -1.527500 4.201500 0.972458 -1.988417 16.214073 0.923292 -1.400875 -2.028157 0.112133 0.311588 6.201725 -3.957398 -0.239526 -16.922160 9.030867 -0.130998 4.928802 1.352400 0.492900 -1.608900 2.170364 -8.187912 4.107322 -76.837019 -4.240438 23.471016 31.573759 -46.469571 -10.234696 1.272552 0.193663 139.982541 21.498931 15.820339 6.136300 -7.125000 0.000000 0.000000 -4.687200 46.070100 -0.124100 3.373154 8.686636 4.731333 75.116851 -10.543691 24.356202 -91.611395 55.857328 -49.725627 -0.683549 0.260523 176.861704 -14.052245 -10.893393 2.755300 7.125000 0.000000 0.000000 10.872400 -40.643100 1.183900 
-0.312061 16.746358 -4.169589 -177.206788 17.111663 173.258067 4.101915 3.530236 -0.309246 -19.825413 5.350473 -2.115453 2.277774 8.268932 28.190730 2.344236 -8.596564 5.220530 0.004100 0.415300 1.141100 -6.909452 -3.627238 -2.454569 29.966215 -4.634319 -2.809104 -6.937754 -12.761659 43.235259 0.257341 -10.244706 -20.433828 -0.064200 -1.635000 4.497800 0.922081 -1.982939 16.011072 0.924752 -1.422862 -2.043742 0.119924 0.282858 6.229379 -3.965450 -0.262933 -16.994803 9.027410 -0.171291 5.038255 1.351100 0.474300 -1.534600 2.128323 -8.195067 4.110234 -76.901803 -3.953520 23.892291 32.783430 -47.304073 -10.813511 1.317617 0.262705 138.799060 21.395401 15.788031 6.109600 -7.125000 0.000000 0.000000 -4.715300 46.023900 -0.119400 3.385099 8.698288 4.703685 75.158962 -10.577763 24.400227 -92.243150 55.719259 -50.356642 -0.680811 0.228358 176.960983 -13.917772 -10.950519 2.752300 7.125000 0.000000 0.000000 11.008900 -40.724200 1.176900 
-0.315544 16.745585 -4.153241 -177.236865 17.197558 173.255704 4.093527 3.526088 -0.290296 -19.864337 5.320037 -2.176200 2.277800 8.261948 28.174201 2.320078 -8.464916 5.206395 0.004100 0.415000 1.140400 -6.885546 -3.615000 -2.498713 29.707460 -5.234536 -2.613692 -6.932890 -12.756180 43.214026 0.346622 -11.037278 -20.886836 -0.071100 -1.720200 4.733000 0.926276 -1.984563 15.809408 0.928099 -1.448797 -2.058849 0.108160 0.255957 6.262286 -3.968831 -0.285942 -17.087735 9.038340 -0.211843 5.151256 1.357600 0.457200 -1.450900 2.087635 -8.199478 4.111738 -76.959217 -3.681052 24.253980 33.992649 -48.118845 -11.416895 1.365537 0.324693 137.685355 21.372271 15.828528 6.131100 -7.125000 0.000000 0.000000 -4.681500 46.054100 -0.122100 3.394237 8.708646 4.674309 75.216173 -10.575106 24.426127 -92.844983 55.585118 -50.958001 -0.683316 0.186875 177.073846 -13.723938 -11.048358 2.750900 7.125000 0.000000 0.000000 11.202700 -40.850600 1.162800 
-0.318833 16.745875 -4.136409 -177.321617 17.305357 173.250475 4.085471 3.522601 -0.272037 -19.961771 5.299372 -2.247247 2.276669 8.253201 28.152951 2.293084 -8.321327 5.208553 0.004900 0.450700 1.238400 -6.861546 -3.598544 -2.542299 29.393238 -5.791703 -2.427386 -6.926658 -12.749719 43.184817 0.436260 -11.817638 -21.334414 -0.084100 -1.871000 5.149200 0.867893 -1.982845 15.604131 0.931101 -1.474167 -2.073441 0.139402 0.224614 6.300279 -4.022411 -0.296716 -17.175251 9.044485 -0.231405 5.257258 1.375000 0.452200 -1.374700 2.041672 -8.206327 4.113802 -77.032579 -3.377519 24.617351 35.301362 -48.980294 -12.086048 1.414148 0.389519 136.626486 21.315938 15.891513 6.152700 -7.125000 0.000000 0.000000 -4.680000 46.104300 -0.127800 3.406380 8.712170 4.645616 75.205701 -10.560633 24.482730 -93.514991 55.429754 -51.649570 -0.692063 0.143135 177.196876 -13.525358 -11.199579 2.762400 7.125000 0.000000 0.000000 11.407900 -41.032100 1.132900 
-0.321735 16.746262 -4.118417 -177.355326 17.426931 173.243287 4.076466 3.518196 -0.253888 -20.002147 5.266223 -2.290016 2.275923 8.243443 28.127792 2.262445 -8.156852 5.190685 0.004200 0.417100 1.146000 -6.839423 -3.585244 -2.582934 29.137354 -6.360598 -2.237013 -6.918698 -12.742969 43.154847 0.516498 -12.510808 -21.750029 -0.102800 -2.067100 5.691100 0.870839 -1.975212 15.436810 0.934402 -1.485203 -2.088669 0.143904 0.204983 6.313171 -4.054400 -0.312191 -17.249579 9.053022 -0.261387 5.366554 1.389400 0.441000 -1.295600 2.002264 -8.215895 4.114805 -77.118588 -3.107268 24.914142 36.600279 -49.808402 -12.772014 1.462329 0.438959 135.709139 21.368488 15.963322 6.203200 -7.125000 0.000000 0.000000 -4.584700 46.164900 -0.132100 3.412985 8.722237 4.615601 75.248190 -10.522532 24.500440 -94.165248 55.275716 -52.321088 -0.706430 0.095626 177.295544 -13.321503 -11.390123 2.783000 7.125000 0.000000 0.000000 11.623700 -41.255500 1.090000 
-0.325507 16.747036 -4.099167 -177.416610 17.564152 173.257682 4.069169 3.513940 -0.236106 -20.083795 5.211842 -2.367134 2.276346 8.235972 28.106137 2.225062 -7.955435 5.144704 0.003800 0.399200 1.096900 -6.816645 -3.572409 -2.619634 28.846512 -6.907618 -2.097594 -6.907955 -12.737004 43.119016 0.576688 -13.012641 -22.035982 -0.129400 -2.318400 6.386500 0.856158 -1.961987 15.260625 0.934994 -1.491606 -2.104554 0.141462 0.187544 6.329230 -4.078933 -0.327946 -17.345169 9.066006 -0.287754 5.465084 1.404200 0.432400 -1.213800 1.961127 -8.223906 4.114152 -77.192526 -2.836789 25.201851 37.949594 -50.641896 -13.504864 1.513642 0.483205 134.866333 21.461497 16.075978 6.279400 -7.125000 0.000000 0.000000 -4.458600 46.266400 -0.139600 3.422199 8.732554 4.583347 75.245840 -10.479527 24.532802 -94.910577 55.092432 -53.118341 -0.709233 0.053735 177.398979 -13.171736 -11.520983 2.795400 7.125000 0.000000 0.000000 11.789500 -41.417800 1.058100 
-0.328216 16.748487 -4.078950 -177.471724 17.728827 173.263235 4.060086 3.511011 -0.220365 -20.129542 5.278587 -2.476925 2.276116 8.228882 28.088439 2.201043 -7.829620 5.150790 0.002900 0.350400 0.962700 -6.794042 -3.559630 -2.654716 28.566985 -7.439726 -1.942275 -6.897130 -12.732517 43.087976 0.618938 -13.415559 -22.326970 -0.174300 -2.689500 7.415400 0.850513 -1.933826 15.107392 0.933755 -1.477034 -2.120180 0.132913 0.182246 6.321520 -4.098544 -0.346588 -17.383345 9.069679 -0.321344 5.535901 1.415400 0.417900 -1.162700 1.921361 -8.238401 4.117856 -77.270693 -2.561298 25.504261 39.322138 -51.462894 -14.265150 1.566821 0.526050 134.070712 21.560938 16.216330 6.367900 -7.125000 0.000000 0.000000 -4.330100 46.394500 -0.149300 3.430093 8.743854 4.553579 75.259549 -10.438543 24.542021 -95.683988 54.897968 -53.962581 -0.706995 0.017775 177.500303 -13.082920 -11.630962 2.812300 7.125000 0.000000 0.000000 11.901600 -41.558100 1.026600 
-0.330537 16.750131 -4.057475 -177.482763 17.900771 173.298319 4.050813 3.505912 -0.204300 -20.145139 5.236431 -2.571490 2.278969 8.227176 28.080766 2.164214 -7.633638 5.116256 0.002900 0.349300 0.959600 -6.775972 -3.548636 -2.687627 28.347427 -7.943380 -1.788406 -6.884874 -12.726432 43.053476 0.650786 -13.746685 -22.599002 -0.220600 -3.023200 8.343300 0.885869 -1.915859 14.950475 0.936445 -1.469006 -2.133124 0.128546 0.175248 6.344250 -4.129287 -0.360460 -17.494818 9.086035 -0.342777 5.635410 1.434400 0.413100 -1.074900 1.883386 -8.242718 4.116573 -77.328014 -2.326398 25.825091 40.696706 -52.260786 -15.046096 1.625442 0.571328 133.227169 21.691958 16.421040 6.491300 -7.125000 0.000000 0.000000 -4.178500 46.588200 -0.164100 3.440227 8.751665 4.519477 75.261583 -10.369139 24.533738 -96.468675 54.699132 -54.842147 -0.701440 -0.007829 177.482166 -13.106919 -11.703713 2.840100 7.125000 0.000000 0.000000 11.907500 -41.659000 0.997000 
